<svg width="578" height="729" viewBox="0 0 578 729" fill="none" xmlns="http://www.w3.org/2000/svg">
<path d="M2.54248 20.0533C2.54248 9.25431 11.2968 0.5 22.0958 0.5H107.699C117.12 0.5 121.766 11.9551 115.006 18.5174C114.595 18.9171 114.151 19.2823 113.679 19.6094L112.679 20.3034C109.018 22.8434 104.752 24.3717 100.311 24.7338L87.8969 25.7461H66.2114C57.636 25.7461 49.2262 28.1075 41.9042 32.5715C39.5436 34.0106 37.3155 35.6566 35.2462 37.4899L30.1293 42.0232C29.4185 42.6529 28.7677 43.3474 28.1854 44.0976C19.8173 54.8788 2.54248 48.9613 2.54248 35.3136V20.0533Z" stroke="white"/>
<path d="M117.959 56.5766C117.959 67.3756 109.205 76.1299 98.4061 76.1299H12.8026C3.38154 76.1299 -1.2642 64.6748 5.49548 58.1125C5.9072 57.7128 6.35102 57.3476 6.82247 57.0205L7.82275 56.3264C11.4835 53.7865 15.7501 52.2581 20.191 51.896L32.605 50.8838H54.2905C62.866 50.8838 71.2758 48.5223 78.5978 44.0584C80.9583 42.6193 83.1864 40.9733 85.2558 39.14L90.3727 34.6067C91.0835 33.9769 91.7342 33.2825 92.3165 32.5323C100.685 21.7511 117.959 27.6685 117.959 41.3163V56.5766Z" stroke="white"/>
<path d="M151.638 20.0533C151.638 9.25431 160.393 0.5 171.192 0.5H256.795C266.216 0.5 270.862 11.9551 264.102 18.5174C263.69 18.9171 263.247 19.2823 262.775 19.6094L261.775 20.3034C258.114 22.8434 253.848 24.3717 249.407 24.7338L236.993 25.7461H215.307C206.732 25.7461 198.322 28.1075 191 32.5715C188.639 34.0106 186.411 35.6566 184.342 37.4899L179.225 42.0232C178.514 42.6529 177.863 43.3474 177.281 44.0976C168.913 54.8788 151.638 48.9613 151.638 35.3136V20.0533Z" stroke="white"/>
<path d="M267.055 56.5766C267.055 67.3756 258.301 76.1299 247.502 76.1299H161.898C152.477 76.1299 147.831 64.6748 154.591 58.1125C155.003 57.7128 155.446 57.3476 155.918 57.0205L156.918 56.3264C160.579 53.7865 164.846 52.2581 169.286 51.896L181.7 50.8838H203.386C211.961 50.8838 220.371 48.5223 227.693 44.0584C230.054 42.6193 232.282 40.9733 234.351 39.14L239.468 34.6067C240.179 33.9769 240.83 33.2825 241.412 32.5323C249.78 21.7511 267.055 27.6685 267.055 41.3163V56.5766Z" stroke="white"/>
<path d="M300.733 20.0533C300.733 9.25431 309.488 0.5 320.287 0.5H405.89C415.311 0.5 419.957 11.9551 413.197 18.5174C412.786 18.9171 412.342 19.2823 411.87 19.6094L410.87 20.3034C407.209 22.8434 402.943 24.3717 398.502 24.7338L386.088 25.7461H364.402C355.827 25.7461 347.417 28.1075 340.095 32.5715C337.735 34.0106 335.506 35.6566 333.437 37.4899L328.32 42.0232C327.609 42.6529 326.959 43.3474 326.376 44.0976C318.008 54.8788 300.733 48.9613 300.733 35.3136V20.0533Z" stroke="white"/>
<path d="M416.15 56.5766C416.15 67.3756 407.396 76.1299 396.597 76.1299H310.994C301.572 76.1299 296.927 64.6748 303.686 58.1125C304.098 57.7128 304.542 57.3476 305.013 57.0205L306.014 56.3264C309.674 53.7865 313.941 52.2581 318.382 51.896L330.796 50.8838H352.481C361.057 50.8838 369.467 48.5223 376.789 44.0584C379.149 42.6193 381.377 40.9733 383.447 39.14L388.564 34.6067C389.274 33.9769 389.925 33.2825 390.507 32.5323C398.876 21.7511 416.15 27.6685 416.15 41.3163V56.5766Z" stroke="white"/>
<path d="M449.829 20.0533C449.829 9.25431 458.583 0.5 469.382 0.5H554.986C564.407 0.5 569.053 11.9551 562.293 18.5174C561.881 18.9171 561.437 19.2823 560.966 19.6094L559.966 20.3034C556.305 22.8434 552.038 24.3717 547.597 24.7338L535.183 25.7461H513.498C504.922 25.7461 496.513 28.1075 489.191 32.5715C486.83 34.0106 484.602 35.6566 482.533 37.4899L477.416 42.0232C476.705 42.6529 476.054 43.3474 475.472 44.0976C467.104 54.8788 449.829 48.9613 449.829 35.3136V20.0533Z" stroke="white"/>
<path d="M565.246 56.5766C565.246 67.3756 556.492 76.1299 545.693 76.1299H460.089C450.668 76.1299 446.022 64.6748 452.782 58.1125C453.194 57.7128 453.637 57.3476 454.109 57.0205L455.109 56.3264C458.77 53.7865 463.036 52.2581 467.477 51.896L479.891 50.8838H501.577C510.152 50.8838 518.562 48.5223 525.884 44.0584C528.245 42.6193 530.473 40.9733 532.542 39.14L537.659 34.6067C538.37 33.9769 539.021 33.2825 539.603 32.5323C547.971 21.7511 565.246 27.6685 565.246 41.3163V56.5766Z" stroke="white"/>
<path d="M2.54248 109.455C2.54248 98.6559 11.2968 89.9016 22.0958 89.9016H107.699C117.12 89.9016 121.766 101.357 115.006 107.919C114.595 108.319 114.151 108.684 113.679 109.011L112.679 109.705C109.018 112.245 104.752 113.773 100.311 114.135L87.8969 115.148H66.2114C57.636 115.148 49.2262 117.509 41.9042 121.973C39.5436 123.412 37.3155 125.058 35.2462 126.891L30.1293 131.425C29.4185 132.055 28.7677 132.749 28.1854 133.499C19.8173 144.28 2.54248 138.363 2.54248 124.715V109.455Z" stroke="white"/>
<path d="M117.959 145.978C117.959 156.777 109.205 165.532 98.4061 165.532H12.8026C3.38154 165.532 -1.2642 154.077 5.49548 147.514C5.9072 147.115 6.35102 146.749 6.82247 146.422L7.82275 145.728C11.4835 143.188 15.7501 141.66 20.191 141.298L32.605 140.286H54.2905C62.866 140.286 71.2758 137.924 78.5978 133.46C80.9583 132.021 83.1864 130.375 85.2558 128.542L90.3727 124.009C91.0835 123.379 91.7342 122.684 92.3165 121.934C100.685 111.153 117.959 117.07 117.959 130.718V145.978Z" stroke="white"/>
<path d="M151.638 109.455C151.638 98.6559 160.393 89.9016 171.192 89.9016H256.795C266.216 89.9016 270.862 101.357 264.102 107.919C263.69 108.319 263.247 108.684 262.775 109.011L261.775 109.705C258.114 112.245 253.848 113.773 249.407 114.135L236.993 115.148H215.307C206.732 115.148 198.322 117.509 191 121.973C188.639 123.412 186.411 125.058 184.342 126.891L179.225 131.425C178.514 132.055 177.863 132.749 177.281 133.499C168.913 144.28 151.638 138.363 151.638 124.715V109.455Z" stroke="white"/>
<path d="M267.055 145.978C267.055 156.777 258.301 165.532 247.502 165.532H161.898C152.477 165.532 147.831 154.077 154.591 147.514C155.003 147.115 155.446 146.749 155.918 146.422L156.918 145.728C160.579 143.188 164.846 141.66 169.286 141.298L181.7 140.286H203.386C211.961 140.286 220.371 137.924 227.693 133.46C230.054 132.021 232.282 130.375 234.351 128.542L239.468 124.009C240.179 123.379 240.83 122.684 241.412 121.934C249.78 111.153 267.055 117.07 267.055 130.718V145.978Z" stroke="white"/>
<path d="M300.733 109.455C300.733 98.6559 309.488 89.9016 320.287 89.9016H405.89C415.311 89.9016 419.957 101.357 413.197 107.919C412.786 108.319 412.342 108.684 411.87 109.011L410.87 109.705C407.209 112.245 402.943 113.773 398.502 114.135L386.088 115.148H364.402C355.827 115.148 347.417 117.509 340.095 121.973C337.735 123.412 335.506 125.058 333.437 126.891L328.32 131.425C327.609 132.055 326.959 132.749 326.376 133.499C318.008 144.28 300.733 138.363 300.733 124.715V109.455Z" stroke="white"/>
<path d="M416.15 145.978C416.15 156.777 407.396 165.532 396.597 165.532H310.994C301.572 165.532 296.927 154.077 303.686 147.514C304.098 147.115 304.542 146.749 305.013 146.422L306.014 145.728C309.674 143.188 313.941 141.66 318.382 141.298L330.796 140.286H352.481C361.057 140.286 369.467 137.924 376.789 133.46C379.149 132.021 381.377 130.375 383.447 128.542L388.564 124.009C389.274 123.379 389.925 122.684 390.507 121.934C398.876 111.153 416.15 117.07 416.15 130.718V145.978Z" stroke="white"/>
<path d="M449.829 109.455C449.829 98.6559 458.583 89.9016 469.382 89.9016H554.986C564.407 89.9016 569.053 101.357 562.293 107.919C561.881 108.319 561.437 108.684 560.966 109.011L559.966 109.705C556.305 112.245 552.038 113.773 547.597 114.135L535.183 115.148H513.498C504.922 115.148 496.513 117.509 489.191 121.973C486.83 123.412 484.602 125.058 482.533 126.891L477.416 131.425C476.705 132.055 476.054 132.749 475.472 133.499C467.104 144.28 449.829 138.363 449.829 124.715V109.455Z" stroke="white"/>
<path d="M565.246 145.978C565.246 156.777 556.492 165.532 545.693 165.532H460.089C450.668 165.532 446.022 154.077 452.782 147.514C453.194 147.115 453.637 146.749 454.109 146.422L455.109 145.728C458.77 143.188 463.036 141.66 467.477 141.298L479.891 140.286H501.577C510.152 140.286 518.562 137.924 525.884 133.46C528.245 132.021 530.473 130.375 532.542 128.542L537.659 124.009C538.37 123.379 539.021 122.684 539.603 121.934C547.971 111.153 565.246 117.07 565.246 130.718V145.978Z" stroke="white"/>
<path d="M2.54248 199.839C2.54248 189.04 11.2968 180.286 22.0958 180.286H107.699C117.12 180.286 121.766 191.741 115.006 198.303C114.595 198.703 114.151 199.068 113.679 199.395L112.679 200.089C109.018 202.629 104.752 204.157 100.311 204.519L87.8969 205.532H66.2114C57.636 205.532 49.2262 207.893 41.9042 212.357C39.5436 213.796 37.3155 215.442 35.2462 217.276L30.1293 221.809C29.4185 222.439 28.7677 223.133 28.1854 223.883C19.8173 234.664 2.54248 228.747 2.54248 215.099V199.839Z" stroke="white"/>
<path d="M117.959 236.362C117.959 247.161 109.205 255.916 98.4061 255.916H12.8026C3.38154 255.916 -1.2642 244.46 5.49548 237.898C5.9072 237.498 6.35102 237.133 6.82247 236.806L7.82275 236.112C11.4835 233.572 15.7501 232.044 20.191 231.682L32.605 230.669H54.2905C62.866 230.669 71.2758 228.308 78.5978 223.844C80.9583 222.405 83.1864 220.759 85.2558 218.926L90.3727 214.392C91.0835 213.763 91.7342 213.068 92.3165 212.318C100.685 201.537 117.959 207.454 117.959 221.102V236.362Z" stroke="white"/>
<path d="M151.638 199.839C151.638 189.04 160.393 180.286 171.192 180.286H256.795C266.216 180.286 270.862 191.741 264.102 198.303C263.69 198.703 263.247 199.068 262.775 199.395L261.775 200.089C258.114 202.629 253.848 204.157 249.407 204.519L236.993 205.532H215.307C206.732 205.532 198.322 207.893 191 212.357C188.639 213.796 186.411 215.442 184.342 217.276L179.225 221.809C178.514 222.439 177.863 223.133 177.281 223.883C168.913 234.664 151.638 228.747 151.638 215.099V199.839Z" stroke="white"/>
<path d="M267.055 236.362C267.055 247.161 258.301 255.916 247.502 255.916H161.898C152.477 255.916 147.831 244.46 154.591 237.898C155.003 237.498 155.446 237.133 155.918 236.806L156.918 236.112C160.579 233.572 164.846 232.044 169.286 231.682L181.7 230.669H203.386C211.961 230.669 220.371 228.308 227.693 223.844C230.054 222.405 232.282 220.759 234.351 218.926L239.468 214.392C240.179 213.763 240.83 213.068 241.412 212.318C249.78 201.537 267.055 207.454 267.055 221.102V236.362Z" stroke="white"/>
<path d="M300.733 199.839C300.733 189.04 309.488 180.286 320.287 180.286H405.89C415.311 180.286 419.957 191.741 413.197 198.303C412.786 198.703 412.342 199.068 411.87 199.395L410.87 200.089C407.209 202.629 402.943 204.157 398.502 204.519L386.088 205.532H364.402C355.827 205.532 347.417 207.893 340.095 212.357C337.735 213.796 335.506 215.442 333.437 217.276L328.32 221.809C327.609 222.439 326.959 223.133 326.376 223.883C318.008 234.664 300.733 228.747 300.733 215.099V199.839Z" stroke="white"/>
<path d="M416.15 236.362C416.15 247.161 407.396 255.916 396.597 255.916H310.994C301.572 255.916 296.927 244.46 303.686 237.898C304.098 237.498 304.542 237.133 305.013 236.806L306.014 236.112C309.674 233.572 313.941 232.044 318.382 231.682L330.796 230.669H352.481C361.057 230.669 369.467 228.308 376.789 223.844C379.149 222.405 381.377 220.759 383.447 218.926L388.564 214.392C389.274 213.763 389.925 213.068 390.507 212.318C398.876 201.537 416.15 207.454 416.15 221.102V236.362Z" stroke="white"/>
<path d="M449.829 199.839C449.829 189.04 458.583 180.286 469.382 180.286H554.986C564.407 180.286 569.053 191.741 562.293 198.303C561.881 198.703 561.437 199.068 560.966 199.395L559.966 200.089C556.305 202.629 552.038 204.157 547.597 204.519L535.183 205.532H513.498C504.922 205.532 496.513 207.893 489.191 212.357C486.83 213.796 484.602 215.442 482.533 217.276L477.416 221.809C476.705 222.439 476.054 223.133 475.472 223.883C467.104 234.664 449.829 228.747 449.829 215.099V199.839Z" stroke="white"/>
<path d="M565.246 236.362C565.246 247.161 556.492 255.916 545.693 255.916H460.089C450.668 255.916 446.022 244.46 452.782 237.898C453.194 237.498 453.637 237.133 454.109 236.806L455.109 236.112C458.77 233.572 463.036 232.044 467.477 231.682L479.891 230.669H501.577C510.152 230.669 518.562 228.308 525.884 223.844C528.245 222.405 530.473 220.759 532.542 218.926L537.659 214.392C538.37 213.763 539.021 213.068 539.603 212.318C547.971 201.537 565.246 207.454 565.246 221.102V236.362Z" stroke="white"/>
<path d="M2.54248 290.223C2.54248 279.424 11.2968 270.67 22.0958 270.67H107.699C117.12 270.67 121.766 282.125 115.006 288.687C114.595 289.087 114.151 289.452 113.679 289.779L112.679 290.473C109.018 293.013 104.752 294.541 100.311 294.904L87.8969 295.916H66.2114C57.636 295.916 49.2262 298.277 41.9042 302.741C39.5436 304.18 37.3155 305.826 35.2462 307.66L30.1293 312.193C29.4185 312.823 28.7677 313.517 28.1854 314.267C19.8173 325.049 2.54248 319.131 2.54248 305.483V290.223Z" stroke="white"/>
<path d="M117.959 326.746C117.959 337.545 109.205 346.3 98.4061 346.3H12.8026C3.38154 346.3 -1.2642 334.845 5.49548 328.282C5.9072 327.883 6.35102 327.518 6.82247 327.19L7.82275 326.496C11.4835 323.956 15.7501 322.428 20.191 322.066L32.605 321.054H54.2905C62.866 321.054 71.2758 318.692 78.5978 314.228C80.9583 312.789 83.1864 311.143 85.2558 309.31L90.3727 304.777C91.0835 304.147 91.7342 303.452 92.3165 302.702C100.685 291.921 117.959 297.838 117.959 311.486V326.746Z" stroke="white"/>
<path d="M151.638 290.223C151.638 279.424 160.393 270.67 171.192 270.67H256.795C266.216 270.67 270.862 282.125 264.102 288.687C263.69 289.087 263.247 289.452 262.775 289.779L261.775 290.473C258.114 293.013 253.848 294.541 249.407 294.904L236.993 295.916H215.307C206.732 295.916 198.322 298.277 191 302.741C188.639 304.18 186.411 305.826 184.342 307.66L179.225 312.193C178.514 312.823 177.863 313.517 177.281 314.267C168.913 325.049 151.638 319.131 151.638 305.483V290.223Z" stroke="white"/>
<path d="M267.055 326.746C267.055 337.545 258.301 346.3 247.502 346.3H161.898C152.477 346.3 147.831 334.845 154.591 328.282C155.003 327.883 155.446 327.518 155.918 327.19L156.918 326.496C160.579 323.956 164.846 322.428 169.286 322.066L181.7 321.054H203.386C211.961 321.054 220.371 318.692 227.693 314.228C230.054 312.789 232.282 311.143 234.351 309.31L239.468 304.777C240.179 304.147 240.83 303.452 241.412 302.702C249.78 291.921 267.055 297.838 267.055 311.486V326.746Z" stroke="white"/>
<path d="M300.733 290.223C300.733 279.424 309.488 270.67 320.287 270.67H405.89C415.311 270.67 419.957 282.125 413.197 288.687C412.786 289.087 412.342 289.452 411.87 289.779L410.87 290.473C407.209 293.013 402.943 294.541 398.502 294.904L386.088 295.916H364.402C355.827 295.916 347.417 298.277 340.095 302.741C337.735 304.18 335.506 305.826 333.437 307.66L328.32 312.193C327.609 312.823 326.959 313.517 326.376 314.267C318.008 325.049 300.733 319.131 300.733 305.483V290.223Z" stroke="white"/>
<path d="M416.15 326.746C416.15 337.545 407.396 346.3 396.597 346.3H310.994C301.572 346.3 296.927 334.845 303.686 328.282C304.098 327.883 304.542 327.518 305.013 327.19L306.014 326.496C309.674 323.956 313.941 322.428 318.382 322.066L330.796 321.054H352.481C361.057 321.054 369.467 318.692 376.789 314.228C379.149 312.789 381.377 311.143 383.447 309.31L388.564 304.777C389.274 304.147 389.925 303.452 390.507 302.702C398.876 291.921 416.15 297.838 416.15 311.486V326.746Z" stroke="white"/>
<path d="M449.829 290.223C449.829 279.424 458.583 270.67 469.382 270.67H554.986C564.407 270.67 569.053 282.125 562.293 288.687C561.881 289.087 561.437 289.452 560.966 289.779L559.966 290.473C556.305 293.013 552.038 294.541 547.597 294.904L535.183 295.916H513.498C504.922 295.916 496.513 298.277 489.191 302.741C486.83 304.18 484.602 305.826 482.533 307.66L477.416 312.193C476.705 312.823 476.054 313.517 475.472 314.267C467.104 325.049 449.829 319.131 449.829 305.483V290.223Z" stroke="white"/>
<path d="M565.246 326.746C565.246 337.545 556.492 346.3 545.693 346.3H460.089C450.668 346.3 446.022 334.845 452.782 328.282C453.194 327.883 453.637 327.518 454.109 327.19L455.109 326.496C458.77 323.956 463.036 322.428 467.477 322.066L479.891 321.054H501.577C510.152 321.054 518.562 318.692 525.884 314.228C528.245 312.789 530.473 311.143 532.542 309.31L537.659 304.777C538.37 304.147 539.021 303.452 539.603 302.702C547.971 291.921 565.246 297.838 565.246 311.486V326.746Z" stroke="white"/>
<path d="M2.54248 380.607C2.54248 369.808 11.2968 361.054 22.0958 361.054H107.699C117.12 361.054 121.766 372.509 115.006 379.071C114.595 379.471 114.151 379.836 113.679 380.163L112.679 380.857C109.018 383.397 104.752 384.925 100.311 385.288L87.8969 386.3H66.2114C57.636 386.3 49.2262 388.661 41.9042 393.125C39.5436 394.564 37.3155 396.21 35.2462 398.044L30.1293 402.577C29.4185 403.207 28.7677 403.901 28.1854 404.651C19.8173 415.433 2.54248 409.515 2.54248 395.867V380.607Z" stroke="white"/>
<path d="M117.959 417.13C117.959 427.929 109.205 436.684 98.4061 436.684H12.8026C3.38154 436.684 -1.2642 425.229 5.49548 418.666C5.9072 418.267 6.35102 417.901 6.82247 417.574L7.82275 416.88C11.4835 414.34 15.7501 412.812 20.191 412.45L32.605 411.438H54.2905C62.866 411.438 71.2758 409.076 78.5978 404.612C80.9583 403.173 83.1864 401.527 85.2558 399.694L90.3727 395.161C91.0835 394.531 91.7342 393.836 92.3165 393.086C100.685 382.305 117.959 388.222 117.959 401.87V417.13Z" stroke="white"/>
<path d="M151.638 380.607C151.638 369.808 160.393 361.054 171.192 361.054H256.795C266.216 361.054 270.862 372.509 264.102 379.071C263.69 379.471 263.247 379.836 262.775 380.163L261.775 380.857C258.114 383.397 253.848 384.925 249.407 385.288L236.993 386.3H215.307C206.732 386.3 198.322 388.661 191 393.125C188.639 394.564 186.411 396.21 184.342 398.044L179.225 402.577C178.514 403.207 177.863 403.901 177.281 404.651C168.913 415.433 151.638 409.515 151.638 395.867V380.607Z" stroke="white"/>
<path d="M267.055 417.13C267.055 427.929 258.301 436.684 247.502 436.684H161.898C152.477 436.684 147.831 425.229 154.591 418.666C155.003 418.267 155.446 417.901 155.918 417.574L156.918 416.88C160.579 414.34 164.846 412.812 169.286 412.45L181.7 411.438H203.386C211.961 411.438 220.371 409.076 227.693 404.612C230.054 403.173 232.282 401.527 234.351 399.694L239.468 395.161C240.179 394.531 240.83 393.836 241.412 393.086C249.78 382.305 267.055 388.222 267.055 401.87V417.13Z" stroke="white"/>
<path d="M300.733 380.607C300.733 369.808 309.488 361.054 320.287 361.054H405.89C415.311 361.054 419.957 372.509 413.197 379.071C412.786 379.471 412.342 379.836 411.87 380.163L410.87 380.857C407.209 383.397 402.943 384.925 398.502 385.288L386.088 386.3H364.402C355.827 386.3 347.417 388.661 340.095 393.125C337.735 394.564 335.506 396.21 333.437 398.044L328.32 402.577C327.609 403.207 326.959 403.901 326.376 404.651C318.008 415.433 300.733 409.515 300.733 395.867V380.607Z" stroke="white"/>
<path d="M416.15 417.13C416.15 427.929 407.396 436.684 396.597 436.684H310.994C301.572 436.684 296.927 425.229 303.686 418.666C304.098 418.267 304.542 417.901 305.013 417.574L306.014 416.88C309.674 414.34 313.941 412.812 318.382 412.45L330.796 411.438H352.481C361.057 411.438 369.467 409.076 376.789 404.612C379.149 403.173 381.377 401.527 383.447 399.694L388.564 395.161C389.274 394.531 389.925 393.836 390.507 393.086C398.876 382.305 416.15 388.222 416.15 401.87V417.13Z" stroke="white"/>
<path d="M449.829 380.607C449.829 369.808 458.583 361.054 469.382 361.054H554.986C564.407 361.054 569.053 372.509 562.293 379.071C561.881 379.471 561.437 379.836 560.966 380.163L559.966 380.857C556.305 383.397 552.038 384.925 547.597 385.288L535.183 386.3H513.498C504.922 386.3 496.513 388.661 489.191 393.125C486.83 394.564 484.602 396.21 482.533 398.044L477.416 402.577C476.705 403.207 476.054 403.901 475.472 404.651C467.104 415.433 449.829 409.515 449.829 395.867V380.607Z" stroke="white"/>
<path d="M565.246 417.13C565.246 427.929 556.492 436.684 545.693 436.684H460.089C450.668 436.684 446.022 425.229 452.782 418.666C453.194 418.267 453.637 417.901 454.109 417.574L455.109 416.88C458.77 414.34 463.036 412.812 467.477 412.45L479.891 411.438H501.577C510.152 411.438 518.562 409.076 525.884 404.612C528.245 403.173 530.473 401.527 532.542 399.694L537.659 395.161C538.37 394.531 539.021 393.836 539.603 393.086C547.971 382.305 565.246 388.222 565.246 401.87V417.13Z" stroke="white"/>
<path d="M2.54248 470.991C2.54248 460.192 11.2968 451.438 22.0958 451.438H107.699C117.12 451.438 121.766 462.893 115.006 469.455C114.595 469.855 114.151 470.22 113.679 470.547L112.679 471.241C109.018 473.781 104.752 475.31 100.311 475.672L87.8969 476.684H66.2114C57.636 476.684 49.2262 479.046 41.9042 483.509C39.5436 484.949 37.3155 486.595 35.2462 488.428L30.1293 492.961C29.4185 493.591 28.7677 494.285 28.1854 495.036C19.8173 505.817 2.54248 499.899 2.54248 486.252V470.991Z" stroke="white"/>
<path d="M117.959 507.515C117.959 518.314 109.205 527.068 98.4061 527.068H12.8026C3.38154 527.068 -1.2642 515.613 5.49548 509.051C5.9072 508.651 6.35102 508.286 6.82247 507.958L7.82275 507.264C11.4835 504.724 15.7501 503.196 20.191 502.834L32.605 501.822H54.2905C62.866 501.822 71.2758 499.46 78.5978 494.996C80.9583 493.557 83.1864 491.911 85.2558 490.078L90.3727 485.545C91.0835 484.915 91.7342 484.22 92.3165 483.47C100.685 472.689 117.959 478.607 117.959 492.254V507.515Z" stroke="white"/>
<path d="M151.638 470.991C151.638 460.192 160.393 451.438 171.192 451.438H256.795C266.216 451.438 270.862 462.893 264.102 469.455C263.69 469.855 263.247 470.22 262.775 470.547L261.775 471.241C258.114 473.781 253.848 475.31 249.407 475.672L236.993 476.684H215.307C206.732 476.684 198.322 479.046 191 483.509C188.639 484.949 186.411 486.595 184.342 488.428L179.225 492.961C178.514 493.591 177.863 494.285 177.281 495.036C168.913 505.817 151.638 499.899 151.638 486.252V470.991Z" stroke="white"/>
<path d="M267.055 507.515C267.055 518.314 258.301 527.068 247.502 527.068H161.898C152.477 527.068 147.831 515.613 154.591 509.051C155.003 508.651 155.446 508.286 155.918 507.958L156.918 507.264C160.579 504.724 164.846 503.196 169.286 502.834L181.7 501.822H203.386C211.961 501.822 220.371 499.46 227.693 494.996C230.054 493.557 232.282 491.911 234.351 490.078L239.468 485.545C240.179 484.915 240.83 484.22 241.412 483.47C249.78 472.689 267.055 478.607 267.055 492.254V507.515Z" stroke="white"/>
<path d="M300.733 470.991C300.733 460.192 309.488 451.438 320.287 451.438H405.89C415.311 451.438 419.957 462.893 413.197 469.455C412.786 469.855 412.342 470.22 411.87 470.547L410.87 471.241C407.209 473.781 402.943 475.31 398.502 475.672L386.088 476.684H364.402C355.827 476.684 347.417 479.045 340.095 483.509C337.735 484.948 335.506 486.594 333.437 488.428L328.32 492.961C327.609 493.591 326.959 494.285 326.376 495.035C318.008 505.817 300.733 499.899 300.733 486.251V470.991Z" stroke="white"/>
<path d="M416.15 507.515C416.15 518.314 407.396 527.068 396.597 527.068H310.994C301.572 527.068 296.927 515.613 303.686 509.051C304.098 508.651 304.542 508.286 305.013 507.958L306.014 507.264C309.674 504.724 313.941 503.196 318.382 502.834L330.796 501.822H352.481C361.057 501.822 369.467 499.46 376.789 494.996C379.149 493.557 381.377 491.911 383.447 490.078L388.564 485.545C389.274 484.915 389.925 484.22 390.507 483.47C398.876 472.689 416.15 478.607 416.15 492.254V507.515Z" stroke="white"/>
<path d="M449.829 470.991C449.829 460.192 458.583 451.438 469.382 451.438H554.986C564.407 451.438 569.053 462.893 562.293 469.455C561.881 469.855 561.437 470.22 560.966 470.547L559.966 471.241C556.305 473.781 552.038 475.31 547.597 475.672L535.183 476.684H513.498C504.922 476.684 496.513 479.046 489.191 483.509C486.83 484.949 484.602 486.595 482.533 488.428L477.416 492.961C476.705 493.591 476.054 494.285 475.472 495.036C467.104 505.817 449.829 499.899 449.829 486.252V470.991Z" stroke="white"/>
<path d="M565.246 507.515C565.246 518.314 556.492 527.068 545.693 527.068H460.089C450.668 527.068 446.022 515.613 452.782 509.051C453.194 508.651 453.637 508.286 454.109 507.958L455.109 507.264C458.77 504.724 463.036 503.196 467.477 502.834L479.891 501.822H501.577C510.152 501.822 518.562 499.46 525.884 494.996C528.245 493.557 530.473 491.911 532.542 490.078L537.659 485.545C538.37 484.915 539.021 484.22 539.603 483.47C547.971 472.689 565.246 478.607 565.246 492.254V507.515Z" stroke="white"/>
<path d="M2.54248 561.375C2.54248 550.576 11.2968 541.822 22.0958 541.822H107.699C117.12 541.822 121.766 553.277 115.006 559.839C114.595 560.239 114.151 560.604 113.679 560.931L112.679 561.625C109.018 564.165 104.752 565.694 100.311 566.056L87.8969 567.068H66.2114C57.636 567.068 49.2262 569.43 41.9042 573.894C39.5436 575.333 37.3155 576.979 35.2462 578.812L30.1293 583.345C29.4185 583.975 28.7677 584.669 28.1854 585.42C19.8173 596.201 2.54248 590.283 2.54248 576.636V561.375Z" stroke="white"/>
<path d="M117.959 597.899C117.959 608.698 109.205 617.452 98.4061 617.452H12.8026C3.38154 617.452 -1.2642 605.997 5.49548 599.435C5.9072 599.035 6.35102 598.67 6.82247 598.343L7.82275 597.649C11.4835 595.109 15.7501 593.58 20.191 593.218L32.605 592.206H54.2905C62.866 592.206 71.2758 589.844 78.5978 585.381C80.9583 583.941 83.1864 582.295 85.2558 580.462L90.3727 575.929C91.0835 575.299 91.7342 574.605 92.3165 573.854C100.685 563.073 117.959 568.991 117.959 582.638V597.899Z" stroke="white"/>
<path d="M151.638 561.375C151.638 550.576 160.393 541.822 171.192 541.822H256.795C266.216 541.822 270.862 553.277 264.102 559.839C263.69 560.239 263.247 560.604 262.775 560.931L261.775 561.625C258.114 564.165 253.848 565.694 249.407 566.056L236.993 567.068H215.307C206.732 567.068 198.322 569.43 191 573.894C188.639 575.333 186.411 576.979 184.342 578.812L179.225 583.345C178.514 583.975 177.863 584.669 177.281 585.42C168.913 596.201 151.638 590.283 151.638 576.636V561.375Z" stroke="white"/>
<path d="M267.055 597.899C267.055 608.698 258.301 617.452 247.502 617.452H161.898C152.477 617.452 147.831 605.997 154.591 599.435C155.003 599.035 155.446 598.67 155.918 598.343L156.918 597.649C160.579 595.109 164.846 593.58 169.286 593.218L181.7 592.206H203.386C211.961 592.206 220.371 589.844 227.693 585.381C230.054 583.941 232.282 582.295 234.351 580.462L239.468 575.929C240.179 575.299 240.83 574.605 241.412 573.854C249.78 563.073 267.055 568.991 267.055 582.638V597.899Z" stroke="white"/>
<path d="M300.733 561.375C300.733 550.576 309.488 541.822 320.287 541.822H405.89C415.311 541.822 419.957 553.277 413.197 559.839C412.786 560.239 412.342 560.604 411.87 560.931L410.87 561.625C407.209 564.165 402.943 565.694 398.502 566.056L386.088 567.068H364.402C355.827 567.068 347.417 569.43 340.095 573.894C337.735 575.333 335.506 576.979 333.437 578.812L328.32 583.345C327.609 583.975 326.959 584.669 326.376 585.42C318.008 596.201 300.733 590.283 300.733 576.636V561.375Z" stroke="white"/>
<path d="M416.15 597.899C416.15 608.698 407.396 617.452 396.597 617.452H310.994C301.572 617.452 296.927 605.997 303.686 599.435C304.098 599.035 304.542 598.67 305.013 598.343L306.014 597.649C309.674 595.109 313.941 593.58 318.382 593.218L330.796 592.206H352.481C361.057 592.206 369.467 589.844 376.789 585.381C379.149 583.941 381.377 582.295 383.447 580.462L388.564 575.929C389.274 575.299 389.925 574.605 390.507 573.854C398.876 563.073 416.15 568.991 416.15 582.638V597.899Z" stroke="white"/>
<path d="M449.829 561.375C449.829 550.576 458.583 541.822 469.382 541.822H554.986C564.407 541.822 569.053 553.277 562.293 559.839C561.881 560.239 561.437 560.604 560.966 560.931L559.966 561.625C556.305 564.165 552.038 565.694 547.597 566.056L535.183 567.068H513.498C504.922 567.068 496.513 569.43 489.191 573.894C486.83 575.333 484.602 576.979 482.533 578.812L477.416 583.345C476.705 583.975 476.054 584.669 475.472 585.42C467.104 596.201 449.829 590.283 449.829 576.636V561.375Z" stroke="white"/>
<path d="M565.246 597.899C565.246 608.698 556.492 617.452 545.693 617.452H460.089C450.668 617.452 446.022 605.997 452.782 599.435C453.194 599.035 453.637 598.67 454.109 598.343L455.109 597.649C458.77 595.109 463.036 593.58 467.477 593.218L479.891 592.206H501.577C510.152 592.206 518.562 589.844 525.884 585.381C528.245 583.941 530.473 582.295 532.542 580.462L537.659 575.929C538.37 575.299 539.021 574.605 539.603 573.854C547.971 563.073 565.246 568.991 565.246 582.638V597.899Z" stroke="white"/>
<path d="M2.54248 651.759C2.54248 640.96 11.2968 632.206 22.0958 632.206H107.699C117.12 632.206 121.766 643.661 115.006 650.223C114.595 650.623 114.151 650.988 113.679 651.315L112.679 652.009C109.018 654.549 104.752 656.078 100.311 656.44L87.8969 657.452H66.2114C57.636 657.452 49.2262 659.814 41.9042 664.278C39.5436 665.717 37.3155 667.363 35.2462 669.196L30.1293 673.729C29.4185 674.359 28.7677 675.053 28.1854 675.804C19.8173 686.585 2.54248 680.667 2.54248 667.02V651.759Z" stroke="white"/>
<path d="M117.959 688.283C117.959 699.082 109.205 707.836 98.4061 707.836H12.8026C3.38154 707.836 -1.2642 696.381 5.49548 689.819C5.9072 689.419 6.35102 689.054 6.82247 688.727L7.82275 688.033C11.4835 685.493 15.7501 683.964 20.191 683.602L32.605 682.59H54.2905C62.866 682.59 71.2758 680.229 78.5978 675.765C80.9583 674.325 83.1864 672.68 85.2558 670.846L90.3727 666.313C91.0835 665.683 91.7342 664.989 92.3165 664.238C100.685 653.457 117.959 659.375 117.959 673.022V688.283Z" stroke="white"/>
<path d="M151.638 651.759C151.638 640.96 160.393 632.206 171.192 632.206H256.795C266.216 632.206 270.862 643.661 264.102 650.223C263.69 650.623 263.247 650.988 262.775 651.315L261.775 652.009C258.114 654.549 253.848 656.078 249.407 656.44L236.993 657.452H215.307C206.732 657.452 198.322 659.814 191 664.278C188.639 665.717 186.411 667.363 184.342 669.196L179.225 673.729C178.514 674.359 177.863 675.053 177.281 675.804C168.913 686.585 151.638 680.667 151.638 667.02V651.759Z" stroke="white"/>
<path d="M267.055 688.283C267.055 699.082 258.301 707.836 247.502 707.836H161.898C152.477 707.836 147.831 696.381 154.591 689.819C155.003 689.419 155.446 689.054 155.918 688.727L156.918 688.033C160.579 685.493 164.846 683.964 169.286 683.602L181.7 682.59H203.386C211.961 682.59 220.371 680.229 227.693 675.765C230.054 674.325 232.282 672.68 234.351 670.846L239.468 666.313C240.179 665.683 240.83 664.989 241.412 664.238C249.78 653.457 267.055 659.375 267.055 673.022V688.283Z" stroke="white"/>
<path d="M300.733 651.759C300.733 640.96 309.488 632.206 320.287 632.206H405.89C415.311 632.206 419.957 643.661 413.197 650.223C412.786 650.623 412.342 650.988 411.87 651.315L410.87 652.009C407.209 654.549 402.943 656.078 398.502 656.44L386.088 657.452H364.402C355.827 657.452 347.417 659.814 340.095 664.278C337.735 665.717 335.506 667.363 333.437 669.196L328.32 673.729C327.609 674.359 326.959 675.053 326.376 675.804C318.008 686.585 300.733 680.667 300.733 667.02V651.759Z" stroke="white"/>
<path d="M416.15 688.283C416.15 699.082 407.396 707.836 396.597 707.836H310.994C301.572 707.836 296.927 696.381 303.686 689.819C304.098 689.419 304.542 689.054 305.013 688.727L306.014 688.033C309.674 685.493 313.941 683.964 318.382 683.602L330.796 682.59H352.481C361.057 682.59 369.467 680.229 376.789 675.765C379.149 674.325 381.377 672.68 383.447 670.846L388.564 666.313C389.274 665.683 389.925 664.989 390.507 664.238C398.876 653.457 416.15 659.375 416.15 673.022V688.283Z" stroke="white"/>
<path d="M449.829 651.759C449.829 640.96 458.583 632.206 469.382 632.206H554.986C564.407 632.206 569.053 643.661 562.293 650.223C561.881 650.623 561.437 650.988 560.966 651.315L559.966 652.009C556.305 654.549 552.038 656.078 547.597 656.44L535.183 657.452H513.498C504.922 657.452 496.513 659.814 489.191 664.278C486.83 665.717 484.602 667.363 482.533 669.196L477.416 673.729C476.705 674.359 476.054 675.053 475.472 675.804C467.104 686.585 449.829 680.667 449.829 667.02V651.759Z" stroke="white"/>
<path d="M565.246 688.283C565.246 699.082 556.492 707.836 545.693 707.836H460.089C450.668 707.836 446.022 696.381 452.782 689.819C453.194 689.419 453.637 689.054 454.109 688.727L455.109 688.033C458.77 685.493 463.036 683.964 467.477 683.602L479.891 682.59H501.577C510.152 682.59 518.562 680.229 525.884 675.765C528.245 674.325 530.473 672.68 532.542 670.846L537.659 666.313C538.37 665.683 539.021 664.989 539.603 664.238C547.971 653.457 565.246 659.375 565.246 673.022V688.283Z" stroke="white"/>
<path d="M2.54248 742.143C2.54248 731.344 11.2968 722.59 22.0958 722.59H107.699C117.12 722.59 121.766 734.045 115.006 740.607C114.595 741.007 114.151 741.372 113.679 741.699L112.679 742.394C109.018 744.934 104.752 746.462 100.311 746.824L87.8969 747.836H66.2114C57.636 747.836 49.2262 750.198 41.9042 754.662C39.5436 756.101 37.3155 757.747 35.2462 759.58L30.1293 764.113C29.4185 764.743 28.7677 765.437 28.1854 766.188C19.8173 776.969 2.54248 771.051 2.54248 757.404V742.143Z" stroke="white"/>
<path d="M151.638 742.143C151.638 731.344 160.393 722.59 171.192 722.59H256.795C266.216 722.59 270.862 734.045 264.102 740.607C263.69 741.007 263.247 741.372 262.775 741.699L261.775 742.394C258.114 744.934 253.848 746.462 249.407 746.824L236.993 747.836H215.307C206.732 747.836 198.322 750.198 191 754.662C188.639 756.101 186.411 757.747 184.342 759.58L179.225 764.113C178.514 764.743 177.863 765.437 177.281 766.188C168.913 776.969 151.638 771.051 151.638 757.404V742.143Z" stroke="white"/>
<path d="M300.733 742.143C300.733 731.344 309.488 722.59 320.287 722.59H405.89C415.311 722.59 419.957 734.045 413.197 740.607C412.786 741.007 412.342 741.372 411.87 741.699L410.87 742.394C407.209 744.934 402.943 746.462 398.502 746.824L386.088 747.836H364.402C355.827 747.836 347.417 750.198 340.095 754.662C337.735 756.101 335.506 757.747 333.437 759.58L328.32 764.113C327.609 764.743 326.959 765.437 326.376 766.188C318.008 776.969 300.733 771.051 300.733 757.404V742.143Z" stroke="white"/>
<path d="M449.829 742.143C449.829 731.344 458.583 722.59 469.382 722.59H554.986C564.407 722.59 569.053 734.045 562.293 740.607C561.881 741.007 561.437 741.372 560.966 741.699L559.966 742.394C556.305 744.934 552.038 746.462 547.597 746.824L535.183 747.836H513.498C504.922 747.836 496.513 750.198 489.191 754.662C486.83 756.101 484.602 757.747 482.533 759.58L477.416 764.113C476.705 764.743 476.054 765.437 475.472 766.188C467.104 776.969 449.829 771.051 449.829 757.404V742.143Z" stroke="white"/>
</svg>
