<svg width="18" height="18" viewBox="0 0 18 18" fill="none" xmlns="http://www.w3.org/2000/svg">
<path d="M18 6.8496C18 3.99822 15.6803 1.67847 12.8289 1.67847H5.17113C2.31975 1.6785 0 3.99825 0 6.84964C0 7.69163 0.68502 8.37665 1.52701 8.37665H2.98459L1.92927 10.7665C1.55633 11.6111 1.36723 12.5075 1.36723 13.4307V14.41C1.36723 15.4642 2.2249 16.3219 3.27913 16.3219H14.7206C15.7749 16.3219 16.6325 15.4642 16.6325 14.41V13.4307C16.6325 12.5074 16.4434 11.6111 16.0704 10.7665L15.0151 8.37665H16.473C17.315 8.37661 18 7.69163 18 6.8496ZM5.17113 2.85747H12.8289V2.8575C14.4894 2.8575 15.9162 3.87675 16.5171 5.32238H13.1196C12.8293 5.02183 12.4225 4.83437 11.9726 4.83437H6.0274C5.57666 4.83437 5.16927 5.02256 4.87877 5.32406C4.86745 5.32343 4.85624 5.32234 4.84478 5.32234H1.48296C2.08378 3.87668 3.5106 2.85747 5.17113 2.85747ZM1.52701 7.19758C1.33513 7.19758 1.17904 7.04152 1.17904 6.8496C1.17904 6.73228 1.18441 6.6162 1.1944 6.50141H4.43162V6.95644C4.43162 7.0894 4.32341 7.19754 4.19048 7.19754H1.52701V7.19758ZM15.4535 13.4306V14.4099C15.4535 14.814 15.1248 15.1427 14.7206 15.1427H3.27913C2.87504 15.1427 2.54626 14.814 2.54626 14.4099V13.4306C2.54626 12.6724 2.70155 11.9363 3.00783 11.2427L4.27468 8.3739C5.01873 8.33017 5.61069 7.71124 5.61069 6.95647V6.43026C5.61069 6.20044 5.79765 6.01348 6.02743 6.01348H11.9726C12.2024 6.01348 12.3893 6.20044 12.3893 6.43026V6.95647C12.3893 7.71117 12.9811 8.33006 13.725 8.3739L14.9919 11.2428C15.2982 11.9363 15.4535 12.6724 15.4535 13.4306ZM13.8096 7.19761V7.19758C13.6766 7.19758 13.5684 7.08944 13.5684 6.95647V6.50145H16.8056C16.8156 6.61623 16.821 6.73232 16.821 6.84967C16.821 7.04155 16.6649 7.19765 16.473 7.19765H13.8096V7.19761Z" fill="white"/>
<path d="M6.94128 9.62743C7.30149 9.62743 7.5935 9.33543 7.5935 8.97522C7.5935 8.61501 7.30149 8.323 6.94128 8.323C6.58107 8.323 6.28906 8.61501 6.28906 8.97522C6.28906 9.33543 6.58107 9.62743 6.94128 9.62743Z" fill="white"/>
<path d="M8.99987 9.62743C9.36008 9.62743 9.65209 9.33543 9.65209 8.97522C9.65209 8.61501 9.36008 8.323 8.99987 8.323C8.63966 8.323 8.34766 8.61501 8.34766 8.97522C8.34766 9.33543 8.63966 9.62743 8.99987 9.62743Z" fill="white"/>
<path d="M11.0587 9.62743C11.4189 9.62743 11.7109 9.33543 11.7109 8.97522C11.7109 8.61501 11.4189 8.323 11.0587 8.323C10.6985 8.323 10.4065 8.61501 10.4065 8.97522C10.4065 9.33543 10.6985 9.62743 11.0587 9.62743Z" fill="white"/>
<path d="M6.94128 11.6099C7.30149 11.6099 7.5935 11.3178 7.5935 10.9576C7.5935 10.5974 7.30149 10.3054 6.94128 10.3054C6.58107 10.3054 6.28906 10.5974 6.28906 10.9576C6.28906 11.3178 6.58107 11.6099 6.94128 11.6099Z" fill="white"/>
<path d="M8.99987 11.6099C9.36008 11.6099 9.65209 11.3178 9.65209 10.9576C9.65209 10.5974 9.36008 10.3054 8.99987 10.3054C8.63966 10.3054 8.34766 10.5974 8.34766 10.9576C8.34766 11.3178 8.63966 11.6099 8.99987 11.6099Z" fill="white"/>
<path d="M11.0587 11.6099C11.4189 11.6099 11.7109 11.3178 11.7109 10.9576C11.7109 10.5974 11.4189 10.3054 11.0587 10.3054C10.6985 10.3054 10.4065 10.5974 10.4065 10.9576C10.4065 11.3178 10.6985 11.6099 11.0587 11.6099Z" fill="white"/>
<path d="M6.94128 13.592C7.30149 13.592 7.5935 13.3 7.5935 12.9398C7.5935 12.5796 7.30149 12.2876 6.94128 12.2876C6.58107 12.2876 6.28906 12.5796 6.28906 12.9398C6.28906 13.3 6.58107 13.592 6.94128 13.592Z" fill="white"/>
<path d="M8.99987 13.592C9.36008 13.592 9.65209 13.3 9.65209 12.9398C9.65209 12.5796 9.36008 12.2876 8.99987 12.2876C8.63966 12.2876 8.34766 12.5796 8.34766 12.9398C8.34766 13.3 8.63966 13.592 8.99987 13.592Z" fill="white"/>
<path d="M11.0587 13.592C11.4189 13.592 11.7109 13.3 11.7109 12.9398C11.7109 12.5796 11.4189 12.2876 11.0587 12.2876C10.6985 12.2876 10.4065 12.5796 10.4065 12.9398C10.4065 13.3 10.6985 13.592 11.0587 13.592Z" fill="white"/>
</svg>
