<svg width="39" height="40" viewBox="0 0 39 40" fill="none" xmlns="http://www.w3.org/2000/svg">
<path opacity="0.3" d="M37.9615 19.9999C37.9615 30.2337 29.5802 38.5383 19.2308 38.5383C8.8813 38.5383 0.5 30.2337 0.5 19.9999C0.5 9.7661 8.8813 1.46143 19.2308 1.46143C29.5802 1.46143 37.9615 9.7661 37.9615 19.9999Z" stroke="white"/>
<path d="M25.641 14.9295C25.0272 15.3581 24.3475 15.686 23.6282 15.9004C23.2421 15.461 22.7291 15.1495 22.1583 15.0081C21.5876 14.8668 20.9868 14.9023 20.4372 15.11C19.8876 15.3177 19.4157 15.6875 19.0852 16.1693C18.7548 16.6512 18.5818 17.2219 18.5897 17.8043V18.4389C17.4632 18.4678 16.347 18.2205 15.3404 17.7189C14.3338 17.2173 13.4681 16.4771 12.8205 15.5641C12.8205 15.5641 10.2564 21.2756 16.0256 23.8141C14.7055 24.7013 13.1328 25.1461 11.5385 25.0833C17.3077 28.2564 24.359 25.0833 24.359 17.7852C24.3584 17.6085 24.3412 17.4321 24.3077 17.2585C24.9619 16.6198 25.4236 15.8133 25.641 14.9295V14.9295Z" stroke="white" stroke-linecap="round" stroke-linejoin="round"/>
</svg>
